<svg width="480" height="448" viewBox="0 0 480 448" fill="none" xmlns="http://www.w3.org/2000/svg">
<path d="M448.856 160.971L448.875 161.044L448.894 161.117L448.895 161.12C448.915 161.198 449 161.52 449 162.9C449 170.716 442.716 177 434.9 177H45.1C37.2843 177 31 170.716 31 162.9C31 162.187 31.0625 161.491 31.2264 160.646C33.7371 150.838 44.58 114.587 74.9858 80.8107C105.292 47.1449 155.818 15 240 15C324.182 15 374.708 47.1449 405.014 80.8107C435.766 114.972 446.507 151.664 448.856 160.971ZM143 96C143 87.7783 139.734 79.8933 133.92 74.0797C128.107 68.2661 120.222 65 112 65C103.778 65 95.8933 68.2661 90.0797 74.0797C84.2661 79.8933 81 87.7783 81 96C81 104.222 84.2661 112.107 90.0797 117.92C95.8933 123.734 103.778 127 112 127C120.222 127 128.107 123.734 133.92 117.92C139.734 112.107 143 104.222 143 96ZM368 127C376.222 127 384.107 123.734 389.92 117.92C395.734 112.107 399 104.222 399 96C399 87.7783 395.734 79.8933 389.92 74.0797C384.107 68.2661 376.222 65 368 65C359.778 65 351.893 68.2661 346.08 74.0797C340.266 79.8933 337 87.7783 337 96C337 104.222 340.266 112.107 346.08 117.92C351.893 123.734 359.778 127 368 127ZM271 64C271 55.7783 267.734 47.8933 261.92 42.0797C256.107 36.2661 248.222 33 240 33C231.778 33 223.893 36.2661 218.08 42.0797C212.266 47.8933 209 55.7783 209 64C209 72.2217 212.266 80.1067 218.08 85.9203C223.893 91.7339 231.778 95 240 95C248.222 95 256.107 91.7339 261.92 85.9203C267.734 80.1067 271 72.2217 271 64ZM15 272C15 253.784 29.7843 239 48 239H432C450.216 239 465 253.784 465 272C465 290.216 450.216 305 432 305H48C29.7843 305 15 290.216 15 272ZM31 368C31 367.772 31.0799 367.533 31.3066 367.307C31.5333 367.08 31.7717 367 32 367H448C448.228 367 448.467 367.08 448.693 367.307C448.92 367.533 449 367.772 449 368V384C449 411.016 427.016 433 400 433H80C52.9843 433 31 411.016 31 384V368Z" stroke="black" stroke-width="30"/>
</svg>
