<svg width="576" height="512" viewBox="0 0 576 512" fill="none" xmlns="http://www.w3.org/2000/svg">
<path d="M555.922 253.291L555.8 254.392V255.5C555.8 262.132 550.079 267.6 543.8 267.6H511.8H491.712L491.8 287.687L492.5 447.8C492.5 447.813 492.5 447.827 492.5 447.84C492.498 449.562 492.369 451.471 492.122 453.691L492 454.792V455.9V472C492 483.054 483.054 492 472 492H456C455.412 492 455.089 491.999 454.805 491.993C454.667 491.99 454.582 491.986 454.539 491.984C454.517 491.982 454.506 491.982 454.503 491.981L452.894 491.835L451.275 491.951C450.705 491.992 450.018 492 448.5 492H416H392C380.946 492 372 483.054 372 472V448V384C372 355.254 348.746 332 320 332H256C227.254 332 204 355.254 204 384V448V472C204 483.054 195.054 492 184 492H160H128.1C127.377 492 126.543 491.952 124.93 491.844L123.434 491.745L121.939 491.869C120.598 491.981 120.229 492 120 492H104C92.9457 492 84 483.054 84 472V360C84 359.765 84.0001 359.6 84.0011 359.443C84.0019 359.32 84.0032 359.231 84.0046 359.166L84.1 358.308V357.2V287.6V267.6H64.1H32C25.0866 267.6 20 262.595 20 255.5C20 251.778 20.9417 249.008 23.7414 246.054L279.542 23.0763L280.058 22.6263L280.542 22.1421C281.524 21.16 282.318 20.7803 283.147 20.5315C284.217 20.2104 285.757 20 288.4 20C290.06 20 291.797 20.2453 293.347 20.7263C294.79 21.1742 295.804 21.7403 296.466 22.259L551.596 246.522L551.613 246.537L551.63 246.552C554.079 248.694 555.132 250.313 555.566 251.239C555.921 251.997 556.004 252.553 555.922 253.291Z" stroke="black" stroke-width="40"/>
</svg>
